HIERARCHY
ROOT Hips
{
	OFFSET 0.000000 0.000000 0.000000 
	CHANNELS 6 Xposition Yposition Zposition Zrotation Yrotation Xrotation
	JOINT LeftUpLeg
	{
		OFFSET 1.363060 -1.794630 0.839290 
		CHANNELS 3 Zrotation Yrotation Xrotation
		JOINT LeftLeg
		{
			OFFSET 2.448110 -6.726130 0.000000 
			CHANNELS 3 Zrotation Yrotation Xrotation
			JOINT LeftFoot
			{
				OFFSET 2.562200 -7.039590 0.000000 
				CHANNELS 3 Zrotation Yrotation Xrotation
				JOINT LeftToeBase
				{
					OFFSET 0.157640 -0.433110 2.322550 
					CHANNELS 3 Zrotation Yrotation Xrotation
					End Site
					{
						OFFSET 0.000000 0.000000 0.000000 
					}
				}
			}
		}
	}
	JOINT RightUpLeg
	{
		OFFSET -1.305520 -1.794630 0.839290 
		CHANNELS 3 Zrotation Yrotation Xrotation
		JOINT RightLeg
		{
			OFFSET -2.542530 -6.985550 0.000000 
			CHANNELS 3 Zrotation Yrotation Xrotation
			JOINT RightFoot
			{
				OFFSET -2.568260 -7.056230 0.000000 
				CHANNELS 3 Zrotation Yrotation Xrotation
				JOINT RightToeBase
				{
					OFFSET -0.164730 -0.452590 2.363150 
					CHANNELS 3 Zrotation Yrotation Xrotation
					End Site
					{
						OFFSET 0.000000 0.000000 0.000000 
					}
				}
			}
		}
	}
	JOINT Spine
	{
		OFFSET 0.028270 2.035590 -0.193380 
		CHANNELS 3 Zrotation Yrotation Xrotation
		JOINT Spine1
		{
			OFFSET 0.056720 2.048850 -0.042750 
			CHANNELS 3 Zrotation Yrotation Xrotation
			JOINT Neck1
			{
				OFFSET -0.054170 1.746240 0.172020 
				CHANNELS 3 Zrotation Yrotation Xrotation
				JOINT Head
				{
					OFFSET 0.104070 1.761360 -0.123970 
					CHANNELS 3 Zrotation Yrotation Xrotation
					End Site
					{
						OFFSET 0.000000 0.000000 0.000000 
					}
				}
			}
			JOINT LeftArm
			{
				OFFSET 3.362410 1.200890 -0.311210 
				CHANNELS 3 Zrotation Yrotation Xrotation
				JOINT LeftForeArm
				{
					OFFSET 4.983000 -0.000000 -0.000000 
					CHANNELS 3 Zrotation Yrotation Xrotation
					JOINT LeftHand
					{
						OFFSET 3.483560 -0.000000 -0.000000 
						CHANNELS 3 Zrotation Yrotation Xrotation
						JOINT LeftHandIndex1
						{
							OFFSET 0.715260 -0.000000 -0.000000 
							CHANNELS 3 Zrotation Yrotation Xrotation
							End Site
							{
								OFFSET 0.000000 0.000000 0.000000 
							}
						}
					}
				}
			}
			JOINT RightArm
			{
				OFFSET -3.136600 1.374050 -0.404650 
				CHANNELS 3 Zrotation Yrotation Xrotation
				JOINT RightForeArm
				{
					OFFSET -5.241900 -0.000000 -0.000000 
					CHANNELS 3 Zrotation Yrotation Xrotation
					JOINT RightHand
					{
						OFFSET -3.444170 -0.000000 -0.000000 
						CHANNELS 3 Zrotation Yrotation Xrotation
						JOINT RightHandIndex1
						{
							OFFSET -0.622530 -0.000000 -0.000000 
							CHANNELS 3 Zrotation Yrotation Xrotation
							End Site
							{
								OFFSET 0.000000 0.000000 0.000000 
							}
						}
					}
				}
			}
		}
	}
}
MOTION
Frames: 16
Frame Time: 0.041667
10.434248 23.565755 9.128231 173.714392 -58.275447 -140.530673 -21.350144 -21.633393 -39.882105 -1.603653 7.353193 15.078908 5.006845 13.774854 16.337324 6.684700 -15.060600 -47.671600 35.689681 8.292863 -28.307611 1.313457 -7.206335 17.034730 -2.204638 -25.908304 15.150290 -1.375200 7.421200 -20.969200 0.954531 1.937269 -7.003311 -0.180517 0.269129 8.360042 12.335437 -1.890632 16.646478 2.869900 -0.251300 3.015200 -100.930148 -8.464018 63.926073 35.299726 -40.546599 -18.283201 -1.831490 0.690912 5.022332 -7.125000 0.000000 0.000000 79.899343 13.420171 51.261357 -32.657193 42.955215 -15.121508 -0.400548 3.020116 4.056024 7.125000 0.000000 0.000000 
10.449564 23.905333 9.115540 173.335222 -60.092754 -141.820344 -22.061776 -21.010135 -38.107439 -1.557965 7.610905 16.106888 4.979820 14.228538 16.331056 6.475200 -14.873600 -46.860400 35.851406 8.381161 -27.572053 0.875659 -8.358392 20.480013 -2.454497 -23.481889 16.662443 -1.911400 8.679000 -24.796200 0.967674 2.266099 -6.767997 -0.132257 0.474006 8.318133 12.342400 -1.879908 16.612225 2.921300 -0.225500 3.233900 -102.492367 -9.989635 63.767646 33.039917 -38.813622 -16.449413 -1.748657 0.680963 5.351702 -7.125000 0.000000 0.000000 81.030356 12.851538 50.293967 -31.997508 42.471641 -14.656374 -0.455712 3.007079 3.319299 7.125000 0.000000 0.000000 
10.467397 24.224343 9.094973 173.096497 -62.107438 -143.072587 -22.214573 -20.672581 -36.640835 -1.484726 7.969733 17.331124 4.918589 14.558431 16.214259 6.058300 -14.484600 -45.215300 36.111164 8.581645 -27.030943 0.384170 -9.460620 23.769009 -2.583888 -21.204538 17.735477 -1.591300 7.957000 -22.583700 1.056039 2.454784 -6.573304 0.109130 0.612577 8.226213 12.376014 -1.852262 16.581866 2.987700 -0.199000 3.399900 -104.007109 -10.988322 63.228801 31.143983 -37.208609 -14.906643 -1.715055 0.725804 6.217053 -7.125000 0.000000 0.000000 82.016092 12.058606 49.121265 -31.570749 42.147654 -14.370019 -0.443262 3.015317 2.581801 7.125000 0.000000 0.000000 
10.477243 24.524099 9.071233 172.732446 -64.412183 -143.896769 -22.130929 -20.714060 -35.457097 -1.374998 8.342460 18.507755 4.809743 14.437420 16.110964 5.800800 -14.232500 -44.177100 36.485477 9.966496 -25.848534 0.025959 -10.115871 25.858640 -2.701519 -19.576928 18.849916 -2.136000 9.143800 -26.246100 1.113498 2.576219 -6.452225 0.169801 0.699644 8.035025 12.386095 -1.838989 16.577382 2.996100 -0.183900 3.468800 -105.267865 -11.500500 62.418194 29.527184 -35.742644 -13.625509 -1.660652 0.791715 7.274136 -7.125000 0.000000 0.000000 83.063186 10.901561 48.081455 -31.385220 42.012738 -14.255905 -0.408557 3.040740 1.228347 7.125000 0.000000 0.000000 
10.477352 24.810837 9.045962 172.356838 -66.929403 -144.526327 -21.942706 -20.577866 -34.607256 -1.197436 8.705297 19.565864 4.620490 13.224631 16.416392 5.866200 -14.297400 -44.442400 36.384138 8.009400 -27.613875 -0.759727 -11.449210 29.713352 -2.955163 -15.396200 21.128176 -1.547500 7.852000 -22.265400 1.190380 2.600496 -6.342326 0.134250 0.747119 8.018019 12.390812 -1.928488 16.635178 2.943300 -0.215400 3.493000 -106.376546 -11.836232 61.497196 28.154571 -34.417297 -12.547337 -1.635698 0.861359 8.102892 -7.125000 0.000000 0.000000 84.150239 9.819750 47.111039 -31.044133 41.768803 -14.031146 -0.404435 3.050386 -0.280662 7.125000 0.000000 0.000000 
10.469147 25.083790 9.016533 171.572219 -69.792708 -144.458942 -21.651436 -20.673069 -34.050700 -1.000510 9.089486 20.608926 4.382340 11.817780 16.632063 5.892400 -14.323300 -44.548500 36.547297 7.675058 -27.778557 -1.156493 -11.867325 31.062247 -3.144072 -12.251442 23.241866 -1.597700 7.972300 -22.630100 1.329783 2.291855 -6.233288 0.151954 0.613391 8.321369 12.450325 -2.011222 16.727283 2.941200 -0.250200 3.468200 -107.475314 -12.122036 60.108984 26.920672 -33.163831 -11.586917 -1.613998 0.917224 8.686319 -7.125000 0.000000 0.000000 85.159435 9.107619 46.221969 -30.435471 41.305460 -13.600987 -0.525117 3.022879 -1.041498 7.125000 0.000000 0.000000 
10.454269 25.346459 8.980431 169.494257 -72.900822 -142.826042 -21.448305 -21.409350 -33.500150 -0.869627 9.384088 21.420865 4.212818 11.225928 16.391728 5.704300 -14.135500 -43.783100 36.886256 11.209878 -24.941759 -0.735717 -10.962526 28.613493 -3.267586 -13.008889 23.757224 -1.849200 8.544600 -24.380900 1.460286 1.710169 -6.146389 0.150095 0.306851 8.787125 12.541044 -2.025900 16.821030 2.976500 -0.257900 3.395100 -108.526374 -12.367127 58.217798 25.747411 -31.908629 -10.682008 -1.585847 0.914103 8.860994 -7.125000 0.000000 0.000000 86.387662 8.564991 45.369275 -29.773152 40.791551 -13.132436 -0.645719 3.008195 -1.494228 7.125000 0.000000 0.000000 
10.434795 25.602784 8.946955 165.460391 -76.048773 -139.199400 -21.540071 -22.334200 -32.836903 -0.798293 9.526610 21.877126 4.126353 11.086059 16.129916 5.531500 -13.958500 -43.071300 36.695274 14.396776 -22.661737 -0.300136 -10.155870 26.420392 -3.188816 -15.278888 22.679395 -1.482400 7.692500 -21.783800 1.554685 1.108185 -6.048736 0.187153 -0.034045 9.336789 12.643213 -2.173749 16.915812 2.945400 -0.320800 3.329700 -109.361690 -12.730877 56.571502 24.741298 -30.763976 -9.890115 -1.618929 0.871492 8.350512 -7.125000 0.000000 0.000000 87.520843 8.231838 44.494635 -29.063486 40.241106 -12.660582 -0.568810 3.064932 -2.094778 7.125000 0.000000 0.000000 
10.411384 25.852654 8.916760 159.325354 -79.136060 -133.325730 -21.648445 -23.040849 -32.360279 -0.743715 9.584617 22.099214 4.067326 10.805029 16.163762 5.583500 -14.012300 -43.286600 36.363315 15.537743 -21.477004 -0.006034 -9.441162 24.444616 -3.036924 -16.194034 21.472206 -1.253400 7.097700 -20.005000 1.724353 0.446971 -5.965856 0.497763 -0.409811 9.968815 12.780337 -2.360920 17.016972 2.933700 -0.402100 3.283700 -110.171392 -13.325554 55.287039 23.806418 -29.632263 -9.143500 -1.700868 0.831748 7.467031 -7.125000 0.000000 0.000000 88.069067 8.044816 43.815634 -28.311913 39.633440 -12.172495 -0.466819 3.132229 -2.624097 7.125000 0.000000 0.000000 
10.385128 26.094865 8.881205 150.832025 -82.240373 -124.880166 -21.277460 -23.697682 -32.001691 -0.740899 9.538448 22.049558 4.075569 10.866034 16.242712 5.725000 -14.156400 -43.867700 36.323353 16.827410 -20.558598 0.265109 -8.843009 22.660644 -2.737062 -16.983071 19.287992 -1.235500 7.048600 -19.859400 1.945245 -0.320672 -5.965067 0.758926 -0.830697 10.436002 12.895668 -2.423895 17.110384 2.986500 -0.432200 3.251700 -110.898129 -13.755224 53.806762 22.870354 -28.455229 -8.412319 -1.772665 0.812540 6.907933 -7.125000 0.000000 0.000000 88.731029 7.807971 43.262619 -27.420018 38.873881 -11.577576 -0.426368 3.177654 -2.685318 7.125000 0.000000 0.000000 
10.358653 26.328981 8.867858 130.505141 -85.301613 -104.504491 -20.942504 -24.858884 -31.782372 -0.760783 9.494425 21.959209 4.111707 11.086520 16.226771 6.055600 -14.482000 -45.204500 35.767871 17.821173 -19.936639 0.578561 -8.292474 20.937814 -2.201958 -19.016932 15.482167 -0.689300 5.307900 -14.788800 2.061914 -1.133472 -6.031466 0.423654 -1.258481 10.658316 12.888150 -2.516428 17.156590 2.936700 -0.471900 3.226200 -111.203009 -13.911824 52.444440 22.053314 -27.416496 -7.797261 -1.823867 0.842776 6.676743 -7.125000 0.000000 0.000000 89.671166 7.482561 42.609040 -26.545382 38.116784 -10.991171 -0.425452 3.213616 -2.312578 7.125000 0.000000 0.000000 
10.330647 26.550954 8.849151 94.195346 -86.708543 -67.945320 -20.730401 -25.358643 -31.998833 -0.814116 9.450061 21.734725 4.165992 11.309562 16.147599 6.341100 -14.751000 -46.335900 35.085150 18.511302 -19.573292 0.790906 -7.852271 19.562257 -1.644337 -20.244278 11.623587 -0.459700 4.349100 -12.061000 2.140040 -1.603475 -6.113489 0.224679 -1.435742 10.816652 12.938697 -2.572606 17.189777 3.003300 -0.505600 3.226800 -111.341155 -13.907102 51.345314 21.416528 -26.592321 -7.336906 -1.835035 0.902588 6.720276 -7.125000 0.000000 0.000000 90.376996 6.954835 41.763887 -25.871127 37.520808 -10.544045 -0.451696 3.221314 -1.629543 7.125000 0.000000 0.000000 
10.306360 26.761877 8.827380 59.361442 -85.931680 -32.599168 -20.389374 -25.344355 -32.726794 -0.881635 9.452595 21.515787 4.228590 11.544485 15.997655 6.435800 -14.837700 -46.706500 34.490983 19.067384 -19.580935 0.967370 -7.491206 18.401926 -1.170863 -21.196184 8.184302 -0.422500 4.171700 -11.560300 2.184191 -1.809106 -6.222692 0.077833 -1.437890 10.885108 12.983760 -2.608171 17.228605 3.085600 -0.530100 3.248600 -111.378195 -13.770818 50.482065 20.942957 -25.970993 -7.010650 -1.806682 0.937958 6.970300 -7.125000 0.000000 0.000000 91.076634 6.309823 40.690694 -25.224263 36.946952 -10.135849 -0.389317 3.214221 -0.818373 7.125000 0.000000 0.000000 
10.284808 26.964596 8.811408 38.784833 -83.908604 -11.421127 -19.916580 -25.168351 -33.492959 -0.924659 9.442487 21.290510 4.226303 11.561320 15.743352 6.616000 -14.999800 -47.406600 34.230406 18.619024 -20.259177 1.030875 -7.285382 17.636677 -1.044709 -20.600740 6.738802 -0.749200 5.528800 -15.423200 2.154089 -1.899161 -6.338175 -0.306212 -1.433365 10.893409 12.975186 -2.652281 17.265068 3.132300 -0.556900 3.281600 -111.113531 -13.601205 50.180074 20.566441 -25.497381 -6.766684 -1.782245 0.947975 7.268564 -7.125000 0.000000 0.000000 91.854327 5.627903 39.595862 -24.630295 36.429163 -9.776230 -0.268347 3.204313 -0.160511 7.125000 0.000000 0.000000 
10.263365 27.158015 8.801781 28.011417 -81.402043 -0.218060 -19.568932 -24.978169 -33.988120 -0.977821 9.393356 21.037275 4.208168 11.901103 15.118949 6.781900 -15.145500 -48.044600 34.129701 16.995328 -21.256107 0.977520 -7.140653 17.148650 -1.191445 -18.631442 7.259959 -1.412300 7.516300 -21.254300 2.080234 -1.930267 -6.443595 -0.740909 -1.432537 10.804768 12.919718 -2.624160 17.288024 3.172900 -0.549800 3.315900 -110.655365 -13.381500 50.218043 20.270238 -25.142535 -6.584407 -1.767262 0.956321 7.692482 -7.125000 0.000000 0.000000 92.459852 4.874983 38.671385 -24.171457 36.031499 -9.497951 -0.207307 3.200069 0.336548 7.125000 0.000000 0.000000 
10.241704 27.331086 8.786684 21.669877 -79.019819 6.433252 -19.237624 -24.432269 -34.269533 -1.040629 9.308169 20.748565 4.182472 12.498024 14.274842 6.892000 -15.240300 -48.464800 34.159207 16.563134 -21.957972 0.964211 -7.052125 16.776857 -1.332124 -17.542403 8.074696 -2.531000 9.894000 -28.634100 2.022494 -1.841407 -6.526552 -0.968026 -1.389809 10.669861 12.890622 -2.560977 17.285686 3.231900 -0.525900 3.351900 -110.192578 -13.219998 50.371867 19.982779 -24.801833 -6.412225 -1.749400 1.010369 8.101772 -7.125000 0.000000 0.000000 92.809837 4.064699 37.890189 -23.927978 35.826560 -9.351761 -0.192676 3.204908 0.606042 7.125000 0.000000 0.000000 
